PathFileType	4	(X/Y/Z)	/Users/niels/Desktop/University/Third Semester/Perception and Action/Exam/Gymnastics Motion Tracking/Code for Gym Tracking/Analyzed Data/Webcam_Backflip/id7_2_baseline_Sports2D/id7_2_baseline_Sports2D_px_person00.trc
DataRate	CameraRate	NumFrames	NumMarkers	Units	OrigDataRate	OrigDataStartFrame	OrigNumFrames
29.808917197452228	29.808917197452228	8	22	m	29.808917197452228	19	157
Frame#	Time	Hip			RHip			RKnee			RAnkle			RBigToe			RSmallToe			RHeel			LHip			LKnee			LAnkle			LBigToe			LSmallToe			LHeel			Neck			Head			Nose			RShoulder			RElbow			RWrist			LShoulder			LElbow			LWrist		
		X1	Y1	Z1	X2	Y2	Z2	X3	Y3	Z3	X4	Y4	Z4	X5	Y5	Z5	X6	Y6	Z6	X7	Y7	Z7	X8	Y8	Z8	X9	Y9	Z9	X10	Y10	Z10	X11	Y11	Z11	X12	Y12	Z12	X13	Y13	Z13	X14	Y14	Z14	X15	Y15	Z15	X16	Y16	Z16	X17	Y17	Z17	X18	Y18	Z18	X19	Y19	Z19	X20	Y20	Z20	X21	Y21	Z21	X22	Y22	Z22
19	0.6373931623931623	0.9433737809868898	-0.5152683843712238	0.0	0.9439863234406659	-0.5149238290694695	0.0	0.9556231510216192	-0.6252141960343116	0.0	0.9380443835266676	-0.7351008701837702	0.0	0.9774817598828606	-0.7631878722808564	0.0	0.968662693527118	-0.7647367961228807	0.0	0.9277715148859504	-0.7513801538580942	0.0	0.9424306994789253	-0.5130281898036592	0.0	0.9524226967038453	-0.6242251514839486	0.0	0.9366582482441134	-0.7248859498050674	0.0	0.9759509075289254	-0.7492325979258257	0.0	0.9728787421782106	-0.7457449438346104	0.0	0.9262211839795458	-0.73849029213756	0.0	0.9612365372351869	-0.37342144511199205	0.0	0.9851222665218617	-0.30494047279849595	0.0	0.9968872583199679	-0.3414898684237688	0.0	0.9535603059307969	-0.37940123453329094	0.0	0.8880035446328547	-0.39350481638600227	0.0	0.8194188883474077	-0.3954762044929581	0.0	0.9611376076173721	-0.3848050730156785	0.0	0.9166924654877233	-0.4048906971375601	0.0	0.9211693578396358	-0.40813275408084204	0.0
20	0.6709401709401709	0.9417884497009142	-0.5078873162857946	0.0	0.9421269595826278	-0.5075491390923839	0.0	0.9599606479057369	-0.6169421364598767	0.0	0.9402314896090003	-0.7279018678255085	0.0	0.9793595694384392	-0.7563295305970683	0.0	0.9701936296955707	-0.7579606157930259	0.0	0.9295307680540493	-0.743936559407745	0.0	0.9407350673581468	-0.5055357131939217	0.0	0.9559528750878076	-0.6159834468074542	0.0	0.9392706517273213	-0.7174931983521021	0.0	0.9783380593814118	-0.7415930046795056	0.0	0.9748413858331991	-0.7383769101889996	0.0	0.9285274090637641	-0.730926332721857	0.0	0.9617398477319643	-0.36737036039489934	0.0	0.9876118731949235	-0.29922733687595515	0.0	0.9984936079195027	-0.3351093343601848	0.0	0.9540844002409656	-0.37390216331090453	0.0	0.8892844243449282	-0.3916093218853968	0.0	0.8217052694972817	-0.3977494450718325	0.0	0.9606559874977936	-0.3784133549293052	0.0	0.9155982451957344	-0.4007629617322876	0.0	0.9083438719107764	-0.4091459900258889	0.0
21	0.7044871794871794	0.9399282315232855	-0.5038828949588459	0.0	0.9398128440749616	-0.5035830862533822	0.0	0.9644722389831852	-0.6117852512500362	0.0	0.9423222860795006	-0.7230912893273895	0.0	0.9813167468990466	-0.7508127306500032	0.0	0.9718165906516919	-0.7526337215744966	0.0	0.9311522987147002	-0.7389014272802912	0.0	0.9387191246637839	-0.5014223299769114	0.0	0.9596767438082965	-0.6107041133186318	0.0	0.9419839703380073	-0.7128001089953021	0.0	0.9806894880551581	-0.735903197895501	0.0	0.976689393919816	-0.7332585914364141	0.0	0.9307663634525651	-0.7261210882877422	0.0	0.9624867708658377	-0.3650382737910681	0.0	0.9906083615475972	-0.29727138889836763	0.0	1.0005562192468775	-0.33250176726430747	0.0	0.9550088336575207	-0.37263210070912356	0.0	0.8911464914896438	-0.3949707480840152	0.0	0.8252311255830945	-0.4067112186444059	0.0	0.9592586471888552	-0.37537722148623043	0.0	0.9131758749245374	-0.39992009467351297	0.0	0.8901339110311027	-0.41511813216977417	0.0
22	0.738034188034188	0.9376864727394262	-0.5037124714334482	0.0	0.9370074886626661	-0.5034634346030111	0.0	0.969162770360067	-0.6097845282646193	0.0	0.9443671122044254	-0.7206048492577615	0.0	0.983300665867984	-0.7467485402366997	0.0	0.973550058158644	-0.7488659396255984	0.0	0.9327808279092341	-0.7363361164634618	0.0	0.9362409183982523	-0.5010917239939008	0.0	0.9635238949132863	-0.6083659911034003	0.0	0.9445279818974188	-0.7107214493602513	0.0	0.9826735451395203	-0.732396506750194	0.0	0.978044214005207	-0.730555512270562	0.0	0.9326647880087695	-0.7241050666295653	0.0	0.9635326836558138	-0.36671838268037454	0.0	0.9939036205397256	-0.29933323373746284	0.0	1.002998146840306	-0.3339921282409908	0.0	0.956550606253297	-0.3758994267513515	0.0	0.893988086516088	-0.4036751589933052	0.0	0.830805392895663	-0.42223846956052125	0.0	0.9572841779556429	-0.37599554257809886	0.0	0.9103893530671492	-0.4023738781696891	0.0	0.8733194009321832	-0.4254414110470353	0.0
23	0.7715811965811965	0.9349348340219935	-0.5078027703892455	0.0	0.9336837321882572	-0.5075797134742743	0.0	0.974033727169436	-0.6109451889757859	0.0	0.9463230679350614	-0.720462327284835	0.0	0.9851751389035119	-0.744566523431223	0.0	0.9752755006821638	-0.7470400613410153	0.0	0.9344391047350842	-0.736257855085623	0.0	0.933222468218734	-0.5049316265928934	0.0	0.9675441285752496	-0.6089369543173606	0.0	0.9467222996695535	-0.7111677685616508	0.0	0.9840512005903251	-0.7314657397970168	0.0	0.9786787776959952	-0.7304964783780157	0.0	0.9339885693009059	-0.7248075122699179	0.0	0.9649226244141543	-0.37255595799282976	0.0	0.9971129052860238	-0.305607990862193	0.0	1.005566323721853	-0.33977623775349064	0.0	0.958805125559105	-0.38386367715605596	0.0	0.8982736362972169	-0.4175545229061795	0.0	0.8393484002348058	-0.4438522631957293	0.0	0.9553290700896054	-0.38057445877764784	0.0	0.9082268323718407	-0.4079964988659224	0.0	0.8634111967995387	-0.43855545690187747	0.0
24	0.8051282051282052	0.9316578404614789	-0.5164008405466883	0.0	0.9299664290927561	-0.516170536099438	0.0	0.9789324830873529	-0.6153812243992542	0.0	0.9480443737642157	-0.7229968568312909	0.0	0.9867936962210739	-0.7449986654823176	0.0	0.9768146753963537	-0.7478266445573944	0.0	0.9360550771277936	-0.7388493267762576	0.0	0.9298075996556606	-0.5132215135410114	0.0	0.9718010851906776	-0.6125831024889203	0.0	0.9485277208373003	-0.7143270714780873	0.0	0.9848927260513799	-0.7336985183837973	0.0	0.9787237914985261	-0.7334054579258524	0.0	0.9346976981614346	-0.7282983091660056	0.0	0.9666396094026596	-0.38255252590450556	0.0	0.9997746628292118	-0.31617206567660694	0.0	1.0078876845945737	-0.3498559141153762	0.0	0.9616079882996751	-0.39636601482132106	0.0	0.9044777071207697	-0.43615858171945027	0.0	0.8518447960710064	-0.4706527596282588	0.0	0.9540418831953628	-0.3894220101495469	0.0	0.9073618252913189	-0.4167672448113711	0.0	0.8628944220804967	-0.45219944078303465	0.0
25	0.8386752136752137	0.9280564600833106	-0.5294890093857145	0.0	0.9262135363496488	-0.5292367850470635	0.0	0.9834233970747643	-0.6233998875076293	0.0	0.94938506564971	-0.7289526665251845	0.0	0.9880270075250761	-0.7490182873351803	0.0	0.9780215975006152	-0.7521225929232193	0.0	0.9375397621128457	-0.7446491201331821	0.0	0.9264227328609638	-0.526066498135968	0.0	0.9761505363398698	-0.6198428200724223	0.0	0.9499825712287726	-0.7208524303704777	0.0	0.9855967063241368	-0.739853119463341	0.0	0.9786668413355641	-0.7397946912247735	0.0	0.9350160740742375	-0.7350394625468257	0.0	0.9684663231744148	-0.39657433715822427	0.0	1.0014252707813724	-0.3308561223134895	0.0	1.0095671955362806	-0.3640260468162365	0.0	0.9644737765837225	-0.4128452691512578	0.0	0.9129874686381002	-0.45873958783658586	0.0	0.8692800553341931	-0.5012401769196768	0.0	0.9537622075211837	-0.4027749874414451	0.0	0.9080529712536454	-0.4291161779420191	0.0	0.8714580460145098	-0.46441396718442574	0.0
26	0.8722222222222222	0.9245891337123469	-0.5467069681927642	0.0	0.922985635746059	-0.5464323478196835	0.0	0.9868004776266807	-0.6354988357274542	0.0	0.9502823787436306	-0.7393261642793635	0.0	0.9887994840464704	-0.7576397544420189	0.0	0.9788502128119674	-0.7608915182392215	0.0	0.9388118752679746	-0.7545022139946745	0.0	0.923658025663318	-0.5432516707991374	0.0	0.9800707521635246	-0.6315362894218436	0.0	0.9511074531690403	-0.7317111708379536	0.0	0.9866162994772194	-0.7506267457025918	0.0	0.9790199934463322	-0.750325009122784	0.0	0.9353083247076173	-0.745819441078256	0.0	0.9699047552463559	-0.4142227099923913	0.0	1.001634931367817	-0.34906426253712625	0.0	1.0102235111706783	-0.3817978008630935	0.0	0.9667385848627646	-0.43242280066201905	0.0	0.9240113752537169	-0.48411063191904347	0.0	0.8924227284811179	-0.53346205464557	0.0	0.9542094785021829	-0.42051642391279603	0.0	0.9103893873360169	-0.4458024406680079	0.0	0.8869999638059598	-0.4750105739085498	0.0
